<svg xmlns="http://www.w3.org/2000/svg" width="880" height="595" viewBox="0 0 880 595" font-family="-apple-system, BlinkMacSystemFont, 'Segoe UI', Helvetica, Arial, sans-serif" role="img" aria-labelledby="title desc">
<title id="title">Adaptive variants versus plain V2</title>
<desc id="desc">Dot plot with 95% intervals: share of flee decisions ambushed by a holding zombie, for RunnerA, RunnerB80 and Adaptive, for every adaptive variant in runs 3 and 4. The shaded band is plain V2's interval; no variant is clearly above it, and the Thompson variants are below it for Adaptive.</desc>
<defs><marker id="arrow" viewBox="0 0 10 10" refX="9" refY="5" markerWidth="7" markerHeight="7" orient="auto-start-reverse"><path d="M0,1 L9,5 L0,9 z" fill="#52514e"/></marker></defs>
<rect x="0.5" y="0.5" width="879" height="594" rx="12" fill="#fcfcfb" stroke="#e1e0d9"/>
<text x="24.0" y="34.0" font-size="17" fill="#0b0b0b" font-weight="600">No adaptive variant beat plain V2</text>
<text x="24.0" y="55.0" font-size="12.5" fill="#52514e">Share of flee decisions ambushed by a holding zombie (the ground truth since run 3), with 95% Wilson intervals.</text>
<text x="24.0" y="73.0" font-size="12.5" fill="#52514e">The band is plain V2's interval in the same run. Repeats of V2 alone spread about as wide.</text>
<circle cx="29.0" cy="104.5" r="5" fill="#2a78d6" stroke="#fcfcfb" stroke-width="2"/>
<text x="40.0" y="108.0" font-size="12" fill="#52514e">plain V2 (control)</text>
<circle cx="186.2" cy="104.5" r="5" fill="#1baf7a" stroke="#fcfcfb" stroke-width="2"/>
<text x="197.2" y="108.0" font-size="12" fill="#52514e">V2 with an adaptive option</text>
<text x="236.0" y="140.0" font-size="13" fill="#0b0b0b" font-weight="600">RunnerA</text>
<line x1="236.0" y1="150.0" x2="236.0" y2="547.0" stroke="#c3c2b7" stroke-width="1"/>
<text x="236.0" y="564.0" font-size="11" fill="#898781" text-anchor="middle">0%</text>
<line x1="329.0" y1="150.0" x2="329.0" y2="547.0" stroke="#e1e0d9" stroke-width="1"/>
<text x="329.0" y="564.0" font-size="11" fill="#898781" text-anchor="middle">25%</text>
<line x1="422.0" y1="150.0" x2="422.0" y2="547.0" stroke="#e1e0d9" stroke-width="1"/>
<text x="422.0" y="564.0" font-size="11" fill="#898781" text-anchor="middle">50%</text>
<text x="452.0" y="140.0" font-size="13" fill="#0b0b0b" font-weight="600">RunnerB80</text>
<line x1="452.0" y1="150.0" x2="452.0" y2="547.0" stroke="#c3c2b7" stroke-width="1"/>
<line x1="545.0" y1="150.0" x2="545.0" y2="547.0" stroke="#e1e0d9" stroke-width="1"/>
<text x="545.0" y="564.0" font-size="11" fill="#898781" text-anchor="middle">25%</text>
<line x1="638.0" y1="150.0" x2="638.0" y2="547.0" stroke="#e1e0d9" stroke-width="1"/>
<text x="638.0" y="564.0" font-size="11" fill="#898781" text-anchor="middle">50%</text>
<text x="668.0" y="140.0" font-size="13" fill="#0b0b0b" font-weight="600">Adaptive</text>
<line x1="668.0" y1="150.0" x2="668.0" y2="547.0" stroke="#c3c2b7" stroke-width="1"/>
<line x1="761.0" y1="150.0" x2="761.0" y2="547.0" stroke="#e1e0d9" stroke-width="1"/>
<text x="761.0" y="564.0" font-size="11" fill="#898781" text-anchor="middle">25%</text>
<line x1="854.0" y1="150.0" x2="854.0" y2="547.0" stroke="#e1e0d9" stroke-width="1"/>
<text x="854.0" y="564.0" font-size="11" fill="#898781" text-anchor="middle">50%</text>
<text x="24.0" y="172.0" font-size="12" fill="#0b0b0b" font-weight="600">Layer 1 · run 3, 2 repeats</text>
<rect x="366.2" y="178" width="52.1" height="256.0" fill="#2a78d6" fill-opacity="0.10"/>
<rect x="537.6" y="178" width="33.5" height="256.0" fill="#2a78d6" fill-opacity="0.10"/>
<rect x="731.2" y="178" width="40.9" height="256.0" fill="#2a78d6" fill-opacity="0.10"/>
<text x="36.0" y="200.5" font-size="12" fill="#0b0b0b" font-weight="600">V2 (control)</text>
<line x1="366.2" y1="196.5" x2="418.3" y2="196.5" stroke="#2a78d6" stroke-width="2" stroke-linecap="round"/>
<circle cx="392.2" cy="196.5" r="4.5" fill="#2a78d6" stroke="#fcfcfb" stroke-width="2"/>
<text x="425.3" y="200.5" font-size="11" fill="#52514e">42%</text>
<line x1="537.6" y1="196.5" x2="571.0" y2="196.5" stroke="#2a78d6" stroke-width="2" stroke-linecap="round"/>
<circle cx="552.4" cy="196.5" r="4.5" fill="#2a78d6" stroke="#fcfcfb" stroke-width="2"/>
<text x="578.0" y="200.5" font-size="11" fill="#52514e">27%</text>
<line x1="731.2" y1="196.5" x2="772.2" y2="196.5" stroke="#2a78d6" stroke-width="2" stroke-linecap="round"/>
<circle cx="749.8" cy="196.5" r="4.5" fill="#2a78d6" stroke="#fcfcfb" stroke-width="2"/>
<text x="779.2" y="200.5" font-size="11" fill="#52514e">22%</text>
<text x="36.0" y="225.5" font-size="12" fill="#52514e">Thompson direction</text>
<line x1="347.6" y1="221.5" x2="396.0" y2="221.5" stroke="#1baf7a" stroke-width="2" stroke-linecap="round"/>
<circle cx="369.9" cy="221.5" r="4.5" fill="#1baf7a" stroke="#fcfcfb" stroke-width="2"/>
<line x1="519.0" y1="221.5" x2="552.4" y2="221.5" stroke="#1baf7a" stroke-width="2" stroke-linecap="round"/>
<circle cx="533.8" cy="221.5" r="4.5" fill="#1baf7a" stroke="#fcfcfb" stroke-width="2"/>
<line x1="701.5" y1="221.5" x2="731.2" y2="221.5" stroke="#1baf7a" stroke-width="2" stroke-linecap="round"/>
<circle cx="712.6" cy="221.5" r="4.5" fill="#1baf7a" stroke="#fcfcfb" stroke-width="2"/>
<text x="738.2" y="225.5" font-size="11" fill="#52514e">12%</text>
<text x="36.0" y="250.5" font-size="12" fill="#52514e">Bandit</text>
<line x1="358.8" y1="246.5" x2="410.8" y2="246.5" stroke="#1baf7a" stroke-width="2" stroke-linecap="round"/>
<circle cx="384.8" cy="246.5" r="4.5" fill="#1baf7a" stroke="#fcfcfb" stroke-width="2"/>
<line x1="533.8" y1="246.5" x2="571.0" y2="246.5" stroke="#1baf7a" stroke-width="2" stroke-linecap="round"/>
<circle cx="552.4" cy="246.5" r="4.5" fill="#1baf7a" stroke="#fcfcfb" stroke-width="2"/>
<line x1="735.0" y1="246.5" x2="779.6" y2="246.5" stroke="#1baf7a" stroke-width="2" stroke-linecap="round"/>
<circle cx="753.6" cy="246.5" r="4.5" fill="#1baf7a" stroke="#fcfcfb" stroke-width="2"/>
<text x="36.0" y="275.5" font-size="12" fill="#52514e">Thompson + Bandit</text>
<line x1="351.3" y1="271.5" x2="403.4" y2="271.5" stroke="#1baf7a" stroke-width="2" stroke-linecap="round"/>
<circle cx="377.4" cy="271.5" r="4.5" fill="#1baf7a" stroke="#fcfcfb" stroke-width="2"/>
<line x1="519.0" y1="271.5" x2="548.7" y2="271.5" stroke="#1baf7a" stroke-width="2" stroke-linecap="round"/>
<circle cx="533.8" cy="271.5" r="4.5" fill="#1baf7a" stroke="#fcfcfb" stroke-width="2"/>
<line x1="705.2" y1="271.5" x2="738.7" y2="271.5" stroke="#1baf7a" stroke-width="2" stroke-linecap="round"/>
<circle cx="720.1" cy="271.5" r="4.5" fill="#1baf7a" stroke="#fcfcfb" stroke-width="2"/>
<text x="745.7" y="275.5" font-size="11" fill="#52514e">14%</text>
<text x="36.0" y="300.5" font-size="12" fill="#52514e">Bandit · joint sector × distance</text>
<line x1="332.7" y1="296.5" x2="377.4" y2="296.5" stroke="#1baf7a" stroke-width="2" stroke-linecap="round"/>
<circle cx="355.0" cy="296.5" r="4.5" fill="#1baf7a" stroke="#fcfcfb" stroke-width="2"/>
<line x1="537.6" y1="296.5" x2="571.0" y2="296.5" stroke="#1baf7a" stroke-width="2" stroke-linecap="round"/>
<circle cx="556.2" cy="296.5" r="4.5" fill="#1baf7a" stroke="#fcfcfb" stroke-width="2"/>
<line x1="723.8" y1="296.5" x2="761.0" y2="296.5" stroke="#1baf7a" stroke-width="2" stroke-linecap="round"/>
<circle cx="742.4" cy="296.5" r="4.5" fill="#1baf7a" stroke="#fcfcfb" stroke-width="2"/>
<text x="36.0" y="325.5" font-size="12" fill="#52514e">Bandit · escape-only window</text>
<line x1="355.0" y1="321.5" x2="410.8" y2="321.5" stroke="#1baf7a" stroke-width="2" stroke-linecap="round"/>
<circle cx="384.8" cy="321.5" r="4.5" fill="#1baf7a" stroke="#fcfcfb" stroke-width="2"/>
<line x1="537.6" y1="321.5" x2="574.8" y2="321.5" stroke="#1baf7a" stroke-width="2" stroke-linecap="round"/>
<circle cx="556.2" cy="321.5" r="4.5" fill="#1baf7a" stroke="#fcfcfb" stroke-width="2"/>
<line x1="727.5" y1="321.5" x2="772.2" y2="321.5" stroke="#1baf7a" stroke-width="2" stroke-linecap="round"/>
<circle cx="746.1" cy="321.5" r="4.5" fill="#1baf7a" stroke="#fcfcfb" stroke-width="2"/>
<text x="36.0" y="350.5" font-size="12" fill="#52514e">Bandit · redraw every escape</text>
<line x1="351.3" y1="346.5" x2="403.4" y2="346.5" stroke="#1baf7a" stroke-width="2" stroke-linecap="round"/>
<circle cx="377.4" cy="346.5" r="4.5" fill="#1baf7a" stroke="#fcfcfb" stroke-width="2"/>
<line x1="537.6" y1="346.5" x2="571.0" y2="346.5" stroke="#1baf7a" stroke-width="2" stroke-linecap="round"/>
<circle cx="556.2" cy="346.5" r="4.5" fill="#1baf7a" stroke="#fcfcfb" stroke-width="2"/>
<line x1="727.5" y1="346.5" x2="764.7" y2="346.5" stroke="#1baf7a" stroke-width="2" stroke-linecap="round"/>
<circle cx="746.1" cy="346.5" r="4.5" fill="#1baf7a" stroke="#fcfcfb" stroke-width="2"/>
<text x="36.0" y="375.5" font-size="12" fill="#52514e">Bandit · γ = 1 (no forgetting)</text>
<line x1="362.5" y1="371.5" x2="414.6" y2="371.5" stroke="#1baf7a" stroke-width="2" stroke-linecap="round"/>
<circle cx="388.5" cy="371.5" r="4.5" fill="#1baf7a" stroke="#fcfcfb" stroke-width="2"/>
<line x1="519.0" y1="371.5" x2="552.4" y2="371.5" stroke="#1baf7a" stroke-width="2" stroke-linecap="round"/>
<circle cx="533.8" cy="371.5" r="4.5" fill="#1baf7a" stroke="#fcfcfb" stroke-width="2"/>
<line x1="712.6" y1="371.5" x2="749.8" y2="371.5" stroke="#1baf7a" stroke-width="2" stroke-linecap="round"/>
<circle cx="731.2" cy="371.5" r="4.5" fill="#1baf7a" stroke="#fcfcfb" stroke-width="2"/>
<text x="36.0" y="400.5" font-size="12" fill="#52514e">Bandit · shared arms</text>
<line x1="347.6" y1="396.5" x2="403.4" y2="396.5" stroke="#1baf7a" stroke-width="2" stroke-linecap="round"/>
<circle cx="373.6" cy="396.5" r="4.5" fill="#1baf7a" stroke="#fcfcfb" stroke-width="2"/>
<line x1="526.4" y1="396.5" x2="559.9" y2="396.5" stroke="#1baf7a" stroke-width="2" stroke-linecap="round"/>
<circle cx="545.0" cy="396.5" r="4.5" fill="#1baf7a" stroke="#fcfcfb" stroke-width="2"/>
<line x1="716.4" y1="396.5" x2="749.8" y2="396.5" stroke="#1baf7a" stroke-width="2" stroke-linecap="round"/>
<circle cx="731.2" cy="396.5" r="4.5" fill="#1baf7a" stroke="#fcfcfb" stroke-width="2"/>
<text x="36.0" y="425.5" font-size="12" fill="#52514e">Bandit · kept across episodes</text>
<line x1="355.0" y1="421.5" x2="410.8" y2="421.5" stroke="#1baf7a" stroke-width="2" stroke-linecap="round"/>
<circle cx="381.1" cy="421.5" r="4.5" fill="#1baf7a" stroke="#fcfcfb" stroke-width="2"/>
<line x1="537.6" y1="421.5" x2="571.0" y2="421.5" stroke="#1baf7a" stroke-width="2" stroke-linecap="round"/>
<circle cx="556.2" cy="421.5" r="4.5" fill="#1baf7a" stroke="#fcfcfb" stroke-width="2"/>
<line x1="723.8" y1="421.5" x2="764.7" y2="421.5" stroke="#1baf7a" stroke-width="2" stroke-linecap="round"/>
<circle cx="742.4" cy="421.5" r="4.5" fill="#1baf7a" stroke="#fcfcfb" stroke-width="2"/>
<text x="24.0" y="456.0" font-size="12" fill="#0b0b0b" font-weight="600">Layer 2 · run 4, 6 repeats</text>
<rect x="384.8" y="462" width="29.8" height="81.0" fill="#2a78d6" fill-opacity="0.10"/>
<rect x="556.2" y="462" width="18.6" height="81.0" fill="#2a78d6" fill-opacity="0.10"/>
<rect x="742.4" y="462" width="22.3" height="81.0" fill="#2a78d6" fill-opacity="0.10"/>
<text x="36.0" y="484.5" font-size="12" fill="#0b0b0b" font-weight="600">V2 (control)</text>
<line x1="384.8" y1="480.5" x2="414.6" y2="480.5" stroke="#2a78d6" stroke-width="2" stroke-linecap="round"/>
<circle cx="399.7" cy="480.5" r="4.5" fill="#2a78d6" stroke="#fcfcfb" stroke-width="2"/>
<text x="421.6" y="484.5" font-size="11" fill="#52514e">44%</text>
<line x1="556.2" y1="480.5" x2="574.8" y2="480.5" stroke="#2a78d6" stroke-width="2" stroke-linecap="round"/>
<circle cx="563.6" cy="480.5" r="4.5" fill="#2a78d6" stroke="#fcfcfb" stroke-width="2"/>
<text x="581.8" y="484.5" font-size="11" fill="#52514e">30%</text>
<line x1="742.4" y1="480.5" x2="764.7" y2="480.5" stroke="#2a78d6" stroke-width="2" stroke-linecap="round"/>
<circle cx="753.6" cy="480.5" r="4.5" fill="#2a78d6" stroke="#fcfcfb" stroke-width="2"/>
<text x="771.7" y="484.5" font-size="11" fill="#52514e">23%</text>
<text x="36.0" y="509.5" font-size="12" fill="#52514e">Reaction model</text>
<line x1="377.4" y1="505.5" x2="407.1" y2="505.5" stroke="#1baf7a" stroke-width="2" stroke-linecap="round"/>
<circle cx="392.2" cy="505.5" r="4.5" fill="#1baf7a" stroke="#fcfcfb" stroke-width="2"/>
<line x1="556.2" y1="505.5" x2="574.8" y2="505.5" stroke="#1baf7a" stroke-width="2" stroke-linecap="round"/>
<circle cx="567.3" cy="505.5" r="4.5" fill="#1baf7a" stroke="#fcfcfb" stroke-width="2"/>
<line x1="735.0" y1="505.5" x2="761.0" y2="505.5" stroke="#1baf7a" stroke-width="2" stroke-linecap="round"/>
<circle cx="746.1" cy="505.5" r="4.5" fill="#1baf7a" stroke="#fcfcfb" stroke-width="2"/>
<text x="36.0" y="534.5" font-size="12" fill="#52514e">Reaction model · prior 0.8</text>
<line x1="384.8" y1="530.5" x2="414.6" y2="530.5" stroke="#1baf7a" stroke-width="2" stroke-linecap="round"/>
<circle cx="399.7" cy="530.5" r="4.5" fill="#1baf7a" stroke="#fcfcfb" stroke-width="2"/>
<line x1="548.7" y1="530.5" x2="567.3" y2="530.5" stroke="#1baf7a" stroke-width="2" stroke-linecap="round"/>
<circle cx="556.2" cy="530.5" r="4.5" fill="#1baf7a" stroke="#fcfcfb" stroke-width="2"/>
<line x1="742.4" y1="530.5" x2="768.4" y2="530.5" stroke="#1baf7a" stroke-width="2" stroke-linecap="round"/>
<circle cx="753.6" cy="530.5" r="4.5" fill="#1baf7a" stroke="#fcfcfb" stroke-width="2"/>
<text x="545.0" y="585.0" font-size="11.5" fill="#52514e" text-anchor="middle">flee decisions ambushed by a holding zombie</text>
</svg>
